<mxfile host="Electron" modified="2024-04-09T16:58:27.508Z" agent="Mozilla/5.0 (Windows NT 10.0; Win64; x64) AppleWebKit/537.36 (KHTML, like Gecko) draw.io/22.0.3 Chrome/114.0.5735.289 Electron/25.8.4 Safari/537.36" etag="BLn6pPB0nq8eabWQUTY9" version="22.0.3" type="device">
  <diagram name="第 1 页" id="rIkYchXioQR5bGLsHgtp">
    <mxGraphModel dx="1036" dy="613" grid="1" gridSize="10" guides="1" tooltips="1" connect="1" arrows="1" fold="1" page="1" pageScale="1" pageWidth="827" pageHeight="1169" math="0" shadow="0">
      <root>
        <mxCell id="0" />
        <mxCell id="1" parent="0" />
        <mxCell id="BkrLogFU0xZkre7jVb3C-53" value="" style="rounded=0;whiteSpace=wrap;html=1;strokeColor=none;" parent="1" vertex="1">
          <mxGeometry x="40" y="40" width="480" height="220" as="geometry" />
        </mxCell>
        <mxCell id="BkrLogFU0xZkre7jVb3C-1" value="" style="endArrow=classic;html=1;rounded=0;" parent="1" source="BkrLogFU0xZkre7jVb3C-20" target="BkrLogFU0xZkre7jVb3C-2" edge="1">
          <mxGeometry width="50" height="50" relative="1" as="geometry">
            <mxPoint x="216" y="95" as="sourcePoint" />
            <mxPoint x="386" y="48" as="targetPoint" />
          </mxGeometry>
        </mxCell>
        <mxCell id="BkrLogFU0xZkre7jVb3C-2" value="&lt;b&gt;&lt;font style=&quot;font-size: 16px;&quot;&gt;Conv&lt;br&gt;Decoder&lt;/font&gt;&lt;/b&gt;" style="rounded=1;whiteSpace=wrap;html=1;fillColor=#fff2cc;strokeColor=#d6b656;" parent="1" vertex="1">
          <mxGeometry x="240" y="110" width="80" height="80" as="geometry" />
        </mxCell>
        <mxCell id="BkrLogFU0xZkre7jVb3C-3" value="&lt;font style=&quot;font-size: 14px;&quot;&gt;k matrices&lt;/font&gt;" style="text;html=1;align=center;verticalAlign=middle;resizable=0;points=[];autosize=1;strokeColor=none;fillColor=none;" parent="1" vertex="1">
          <mxGeometry x="40" y="100" width="90" height="30" as="geometry" />
        </mxCell>
        <mxCell id="BkrLogFU0xZkre7jVb3C-4" value="" style="endArrow=classic;html=1;rounded=0;" parent="1" source="BkrLogFU0xZkre7jVb3C-2" target="BkrLogFU0xZkre7jVb3C-38" edge="1">
          <mxGeometry width="50" height="50" relative="1" as="geometry">
            <mxPoint x="196" y="130" as="sourcePoint" />
            <mxPoint x="356" y="106.25" as="targetPoint" />
          </mxGeometry>
        </mxCell>
        <mxCell id="BkrLogFU0xZkre7jVb3C-5" value="" style="endArrow=classic;html=1;rounded=0;" parent="1" source="BkrLogFU0xZkre7jVb3C-2" target="BkrLogFU0xZkre7jVb3C-31" edge="1">
          <mxGeometry width="50" height="50" relative="1" as="geometry">
            <mxPoint x="336" y="181" as="sourcePoint" />
            <mxPoint x="356" y="193.75" as="targetPoint" />
          </mxGeometry>
        </mxCell>
        <mxCell id="BkrLogFU0xZkre7jVb3C-6" value="&lt;font style=&quot;font-size: 14px;&quot;&gt;k matrices&lt;/font&gt;" style="text;html=1;align=center;verticalAlign=middle;resizable=0;points=[];autosize=1;strokeColor=none;fillColor=none;" parent="1" vertex="1">
          <mxGeometry x="430" y="135" width="90" height="30" as="geometry" />
        </mxCell>
        <mxCell id="BkrLogFU0xZkre7jVb3C-7" value="" style="group" parent="1" vertex="1" connectable="0">
          <mxGeometry x="180" y="90" width="20" height="40" as="geometry" />
        </mxCell>
        <mxCell id="BkrLogFU0xZkre7jVb3C-8" value="" style="shape=waypoint;sketch=0;fillStyle=solid;size=6;pointerEvents=1;points=[];fillColor=none;resizable=0;rotatable=0;perimeter=centerPerimeter;snapToPoint=1;" parent="BkrLogFU0xZkre7jVb3C-7" vertex="1">
          <mxGeometry width="20" height="20" as="geometry" />
        </mxCell>
        <mxCell id="BkrLogFU0xZkre7jVb3C-9" value="" style="shape=waypoint;sketch=0;fillStyle=solid;size=6;pointerEvents=1;points=[];fillColor=none;resizable=0;rotatable=0;perimeter=centerPerimeter;snapToPoint=1;" parent="BkrLogFU0xZkre7jVb3C-7" vertex="1">
          <mxGeometry y="13.333333333333332" width="20" height="20" as="geometry" />
        </mxCell>
        <mxCell id="BkrLogFU0xZkre7jVb3C-10" value="" style="shape=waypoint;sketch=0;fillStyle=solid;size=6;pointerEvents=1;points=[];fillColor=none;resizable=0;rotatable=0;perimeter=centerPerimeter;snapToPoint=1;" parent="BkrLogFU0xZkre7jVb3C-7" vertex="1">
          <mxGeometry y="26.666666666666664" width="20" height="20" as="geometry" />
        </mxCell>
        <mxCell id="BkrLogFU0xZkre7jVb3C-11" value="" style="group" parent="1" vertex="1" connectable="0">
          <mxGeometry x="356" y="120" width="20" height="60" as="geometry" />
        </mxCell>
        <mxCell id="BkrLogFU0xZkre7jVb3C-12" value="" style="shape=waypoint;sketch=0;fillStyle=solid;size=6;pointerEvents=1;points=[];fillColor=none;resizable=0;rotatable=0;perimeter=centerPerimeter;snapToPoint=1;" parent="BkrLogFU0xZkre7jVb3C-11" vertex="1">
          <mxGeometry width="20" height="20" as="geometry" />
        </mxCell>
        <mxCell id="BkrLogFU0xZkre7jVb3C-13" value="" style="shape=waypoint;sketch=0;fillStyle=solid;size=6;pointerEvents=1;points=[];fillColor=none;resizable=0;rotatable=0;perimeter=centerPerimeter;snapToPoint=1;" parent="BkrLogFU0xZkre7jVb3C-11" vertex="1">
          <mxGeometry y="20" width="20" height="20" as="geometry" />
        </mxCell>
        <mxCell id="BkrLogFU0xZkre7jVb3C-14" value="" style="shape=waypoint;sketch=0;fillStyle=solid;size=6;pointerEvents=1;points=[];fillColor=none;resizable=0;rotatable=0;perimeter=centerPerimeter;snapToPoint=1;" parent="BkrLogFU0xZkre7jVb3C-11" vertex="1">
          <mxGeometry y="40" width="20" height="20" as="geometry" />
        </mxCell>
        <mxCell id="BkrLogFU0xZkre7jVb3C-15" value="" style="shape=curlyBracket;whiteSpace=wrap;html=1;rounded=1;labelPosition=left;verticalLabelPosition=middle;align=right;verticalAlign=middle;" parent="1" vertex="1">
          <mxGeometry x="120" y="80" width="20" height="70" as="geometry" />
        </mxCell>
        <mxCell id="BkrLogFU0xZkre7jVb3C-16" value="" style="shape=curlyBracket;whiteSpace=wrap;html=1;rounded=1;flipH=1;labelPosition=right;verticalLabelPosition=middle;align=left;verticalAlign=middle;" parent="1" vertex="1">
          <mxGeometry x="420" y="80" width="20" height="140" as="geometry" />
        </mxCell>
        <mxCell id="BkrLogFU0xZkre7jVb3C-23" value="" style="endArrow=classic;html=1;rounded=0;" parent="1" target="BkrLogFU0xZkre7jVb3C-2" edge="1">
          <mxGeometry width="50" height="50" relative="1" as="geometry">
            <mxPoint x="209.16666666666674" y="200" as="sourcePoint" />
            <mxPoint x="320" y="250" as="targetPoint" />
          </mxGeometry>
        </mxCell>
        <mxCell id="BkrLogFU0xZkre7jVb3C-25" value="M" style="text;html=1;align=center;verticalAlign=middle;resizable=0;points=[];autosize=1;strokeColor=none;fillColor=none;" parent="1" vertex="1">
          <mxGeometry x="139" y="196" width="30" height="30" as="geometry" />
        </mxCell>
        <mxCell id="BkrLogFU0xZkre7jVb3C-27" value="" style="endArrow=classic;startArrow=classic;html=1;rounded=0;" parent="1" edge="1">
          <mxGeometry width="50" height="50" relative="1" as="geometry">
            <mxPoint x="200" y="235" as="sourcePoint" />
            <mxPoint x="170" y="235" as="targetPoint" />
          </mxGeometry>
        </mxCell>
        <mxCell id="BkrLogFU0xZkre7jVb3C-28" value="M&#39;" style="text;html=1;align=center;verticalAlign=middle;resizable=0;points=[];autosize=1;strokeColor=none;fillColor=none;" parent="1" vertex="1">
          <mxGeometry x="166" y="232" width="40" height="30" as="geometry" />
        </mxCell>
        <mxCell id="BkrLogFU0xZkre7jVb3C-29" value="" style="group" parent="1" vertex="1" connectable="0">
          <mxGeometry x="340" y="200" width="80" height="60" as="geometry" />
        </mxCell>
        <mxCell id="BkrLogFU0xZkre7jVb3C-30" value="" style="endArrow=classic;startArrow=classic;html=1;rounded=0;" parent="BkrLogFU0xZkre7jVb3C-29" edge="1">
          <mxGeometry width="50" height="50" relative="1" as="geometry">
            <mxPoint x="60" as="sourcePoint" />
            <mxPoint x="40" y="20" as="targetPoint" />
          </mxGeometry>
        </mxCell>
        <mxCell id="BkrLogFU0xZkre7jVb3C-31" value="" style="shape=parallelogram;perimeter=parallelogramPerimeter;whiteSpace=wrap;html=1;fixedSize=1;fillColor=#fff2cc;strokeColor=#d6b656;" parent="BkrLogFU0xZkre7jVb3C-29" vertex="1">
          <mxGeometry width="50" height="20" as="geometry" />
        </mxCell>
        <mxCell id="BkrLogFU0xZkre7jVb3C-32" value="" style="endArrow=classic;startArrow=classic;html=1;rounded=0;" parent="BkrLogFU0xZkre7jVb3C-29" edge="1">
          <mxGeometry width="50" height="50" relative="1" as="geometry">
            <mxPoint x="30" y="30" as="sourcePoint" />
            <mxPoint y="30" as="targetPoint" />
          </mxGeometry>
        </mxCell>
        <mxCell id="BkrLogFU0xZkre7jVb3C-33" value="M&#39;" style="text;html=1;align=center;verticalAlign=middle;resizable=0;points=[];autosize=1;strokeColor=none;fillColor=none;" parent="BkrLogFU0xZkre7jVb3C-29" vertex="1">
          <mxGeometry x="-5" y="30" width="40" height="30" as="geometry" />
        </mxCell>
        <mxCell id="BkrLogFU0xZkre7jVb3C-34" value="M" style="text;html=1;align=center;verticalAlign=middle;resizable=0;points=[];autosize=1;strokeColor=none;fillColor=none;" parent="BkrLogFU0xZkre7jVb3C-29" vertex="1">
          <mxGeometry x="50" width="30" height="30" as="geometry" />
        </mxCell>
        <mxCell id="BkrLogFU0xZkre7jVb3C-35" value="" style="group" parent="1" vertex="1" connectable="0">
          <mxGeometry x="340" y="40" width="80" height="70" as="geometry" />
        </mxCell>
        <mxCell id="BkrLogFU0xZkre7jVb3C-36" value="" style="endArrow=classic;startArrow=classic;html=1;rounded=0;" parent="BkrLogFU0xZkre7jVb3C-35" edge="1">
          <mxGeometry width="50" height="50" relative="1" as="geometry">
            <mxPoint x="60" y="40" as="sourcePoint" />
            <mxPoint x="40" y="60" as="targetPoint" />
          </mxGeometry>
        </mxCell>
        <mxCell id="BkrLogFU0xZkre7jVb3C-37" value="M" style="text;html=1;align=center;verticalAlign=middle;resizable=0;points=[];autosize=1;strokeColor=none;fillColor=none;" parent="BkrLogFU0xZkre7jVb3C-35" vertex="1">
          <mxGeometry x="50" y="40" width="30" height="30" as="geometry" />
        </mxCell>
        <mxCell id="BkrLogFU0xZkre7jVb3C-38" value="" style="shape=parallelogram;perimeter=parallelogramPerimeter;whiteSpace=wrap;html=1;fixedSize=1;fillColor=#fff2cc;strokeColor=#d6b656;" parent="BkrLogFU0xZkre7jVb3C-35" vertex="1">
          <mxGeometry y="40" width="50" height="20" as="geometry" />
        </mxCell>
        <mxCell id="BkrLogFU0xZkre7jVb3C-39" value="" style="endArrow=classic;startArrow=classic;html=1;rounded=0;" parent="BkrLogFU0xZkre7jVb3C-35" edge="1">
          <mxGeometry width="50" height="50" relative="1" as="geometry">
            <mxPoint x="50" y="30" as="sourcePoint" />
            <mxPoint x="20" y="30" as="targetPoint" />
          </mxGeometry>
        </mxCell>
        <mxCell id="BkrLogFU0xZkre7jVb3C-40" value="M&#39;" style="text;html=1;align=center;verticalAlign=middle;resizable=0;points=[];autosize=1;strokeColor=none;fillColor=none;" parent="BkrLogFU0xZkre7jVb3C-35" vertex="1">
          <mxGeometry x="15" width="40" height="30" as="geometry" />
        </mxCell>
        <mxCell id="BkrLogFU0xZkre7jVb3C-18" value="" style="endArrow=classic;startArrow=classic;html=1;rounded=0;" parent="1" edge="1">
          <mxGeometry width="50" height="50" relative="1" as="geometry">
            <mxPoint x="172" y="80" as="sourcePoint" />
            <mxPoint x="151" y="90" as="targetPoint" />
          </mxGeometry>
        </mxCell>
        <mxCell id="BkrLogFU0xZkre7jVb3C-19" value="M" style="text;html=1;align=center;verticalAlign=middle;resizable=0;points=[];autosize=1;strokeColor=none;fillColor=none;" parent="1" vertex="1">
          <mxGeometry x="139" y="60" width="30" height="30" as="geometry" />
        </mxCell>
        <mxCell id="BkrLogFU0xZkre7jVb3C-20" value="" style="shape=parallelogram;perimeter=parallelogramPerimeter;whiteSpace=wrap;html=1;fixedSize=1;fillColor=#dae8fc;strokeColor=#6c8ebf;" parent="1" vertex="1">
          <mxGeometry x="170" y="80" width="50" height="10" as="geometry" />
        </mxCell>
        <mxCell id="BkrLogFU0xZkre7jVb3C-21" value="" style="endArrow=classic;startArrow=classic;html=1;rounded=0;" parent="1" edge="1">
          <mxGeometry width="50" height="50" relative="1" as="geometry">
            <mxPoint x="220" y="70" as="sourcePoint" />
            <mxPoint x="190" y="70" as="targetPoint" />
          </mxGeometry>
        </mxCell>
        <mxCell id="BkrLogFU0xZkre7jVb3C-22" value="M&#39;" style="text;html=1;align=center;verticalAlign=middle;resizable=0;points=[];autosize=1;strokeColor=none;fillColor=none;" parent="1" vertex="1">
          <mxGeometry x="185" y="40" width="40" height="30" as="geometry" />
        </mxCell>
        <mxCell id="BkrLogFU0xZkre7jVb3C-42" value="" style="shape=parallelogram;perimeter=parallelogramPerimeter;whiteSpace=wrap;html=1;fixedSize=1;fillColor=#dae8fc;strokeColor=#6c8ebf;" parent="1" vertex="1">
          <mxGeometry x="171" y="135" width="50" height="10" as="geometry" />
        </mxCell>
        <mxCell id="BkrLogFU0xZkre7jVb3C-43" value="&lt;font style=&quot;font-size: 14px;&quot;&gt;r matrices&lt;/font&gt;" style="text;html=1;align=center;verticalAlign=middle;resizable=0;points=[];autosize=1;strokeColor=none;fillColor=none;" parent="1" vertex="1">
          <mxGeometry x="45" y="200" width="80" height="30" as="geometry" />
        </mxCell>
        <mxCell id="BkrLogFU0xZkre7jVb3C-44" value="" style="shape=curlyBracket;whiteSpace=wrap;html=1;rounded=1;labelPosition=left;verticalLabelPosition=middle;align=right;verticalAlign=middle;" parent="1" vertex="1">
          <mxGeometry x="120" y="160" width="20" height="70" as="geometry" />
        </mxCell>
        <mxCell id="BkrLogFU0xZkre7jVb3C-45" value="" style="shape=parallelogram;perimeter=parallelogramPerimeter;whiteSpace=wrap;html=1;fixedSize=1;fillColor=#dae8fc;strokeColor=#6c8ebf;" parent="1" vertex="1">
          <mxGeometry x="170" y="160" width="50" height="10" as="geometry" />
        </mxCell>
        <mxCell id="BkrLogFU0xZkre7jVb3C-46" value="" style="group" parent="1" vertex="1" connectable="0">
          <mxGeometry x="180" y="170" width="20" height="40" as="geometry" />
        </mxCell>
        <mxCell id="BkrLogFU0xZkre7jVb3C-47" value="" style="shape=waypoint;sketch=0;fillStyle=solid;size=6;pointerEvents=1;points=[];fillColor=none;resizable=0;rotatable=0;perimeter=centerPerimeter;snapToPoint=1;" parent="BkrLogFU0xZkre7jVb3C-46" vertex="1">
          <mxGeometry width="20" height="20" as="geometry" />
        </mxCell>
        <mxCell id="BkrLogFU0xZkre7jVb3C-48" value="" style="shape=waypoint;sketch=0;fillStyle=solid;size=6;pointerEvents=1;points=[];fillColor=none;resizable=0;rotatable=0;perimeter=centerPerimeter;snapToPoint=1;" parent="BkrLogFU0xZkre7jVb3C-46" vertex="1">
          <mxGeometry y="13.333333333333332" width="20" height="20" as="geometry" />
        </mxCell>
        <mxCell id="BkrLogFU0xZkre7jVb3C-49" value="" style="shape=waypoint;sketch=0;fillStyle=solid;size=6;pointerEvents=1;points=[];fillColor=none;resizable=0;rotatable=0;perimeter=centerPerimeter;snapToPoint=1;" parent="BkrLogFU0xZkre7jVb3C-46" vertex="1">
          <mxGeometry y="26.666666666666664" width="20" height="20" as="geometry" />
        </mxCell>
        <mxCell id="BkrLogFU0xZkre7jVb3C-50" value="" style="shape=parallelogram;perimeter=parallelogramPerimeter;whiteSpace=wrap;html=1;fixedSize=1;fillColor=#dae8fc;strokeColor=#6c8ebf;" parent="1" vertex="1">
          <mxGeometry x="169" y="215" width="50" height="10" as="geometry" />
        </mxCell>
        <mxCell id="BkrLogFU0xZkre7jVb3C-52" value="" style="endArrow=classic;startArrow=classic;html=1;rounded=0;" parent="1" edge="1">
          <mxGeometry width="50" height="50" relative="1" as="geometry">
            <mxPoint x="175" y="215" as="sourcePoint" />
            <mxPoint x="154" y="225" as="targetPoint" />
          </mxGeometry>
        </mxCell>
      </root>
    </mxGraphModel>
  </diagram>
</mxfile>
